<?xml version="1.0" encoding="utf-8"?>
<!-- Generator: Adobe Illustrator 23.0.3, SVG Export Plug-In . SVG Version: 6.00 Build 0)  -->
<svg version="1.1" id="Layer_1" xmlns="http://www.w3.org/2000/svg" xmlns:xlink="http://www.w3.org/1999/xlink" x="0px" y="0px"
	 viewBox="0 0 1350 1000" style="enable-background:new 0 0 1350 1000;" xml:space="preserve">
<g>
	<path d="M35.87,280.35c7.71-21.11,17.17-41.55,27.87-61.32c5.43-9.84,11.09-19.57,17.15-29.08c6.06-9.49,12.39-18.82,19.15-27.91
		c1.69-2.27,3.41-4.53,5.17-6.78c1.8-2.29,3.64-4.44,5.45-6.6c3.66-4.33,7.48-8.53,11.31-12.71c7.73-8.3,15.81-16.29,24.2-23.96
		c16.79-15.32,34.83-29.38,54.01-41.8c19.08-12.5,39.28-23.45,60.17-32.81c20.9-9.37,42.56-17.15,64.74-23.14
		c11.09-3,22.3-5.57,33.61-7.67c11.32-2.06,22.73-3.63,34.18-4.77c11.46-1.13,22.98-1.64,34.49-1.79
		c11.52-0.11,23.03,0.41,34.51,1.24l-0.32-0.01c0.29,0.01,0.74,0.05,0.9,0.06l0.56,0.05l1.11,0.11l2.18,0.25
		c1.45,0.18,2.89,0.36,4.34,0.56c2.88,0.4,5.76,0.83,8.61,1.31c5.72,0.93,11.4,2.01,17.06,3.2c11.32,2.36,22.54,5.14,33.63,8.29
		c11.1,3.15,22.09,6.67,32.94,10.52c10.84,3.9,21.58,8.07,32.14,12.62c2.65,1.12,5.26,2.34,7.89,3.5c2.62,1.17,5.25,2.34,7.83,3.6
		l7.78,3.72c2.57,1.27,5.12,2.6,7.69,3.9c5.15,2.55,10.14,5.38,15.21,8.1c2.53,1.37,4.98,2.85,7.48,4.27
		c2.47,1.45,4.99,2.83,7.42,4.36c19.65,11.84,38.49,24.98,56.26,39.39c2.26,1.75,4.43,3.61,6.59,5.47l6.53,5.56
		c1.1,0.92,2.16,1.86,3.22,2.83l3.16,2.88l6.33,5.77c8.24,7.74,16.51,15.32,25.04,22.71c8.51,7.4,17.19,14.64,25.89,21.91
		c8.7,7.26,17.37,14.5,26.21,21.48c4.42,3.47,8.86,6.9,13.4,10c2.27,1.55,4.54,2.99,6.87,4.25c2.3,1.28,4.88,2.36,7.37,3.49
		c1.24,0.6,2.53,1.05,3.81,1.55c1.29,0.48,2.56,1,3.85,1.44c2.62,0.81,5.22,1.74,7.91,2.37c5.31,1.47,10.77,2.43,16.25,3.14
		c10.99,1.41,22.19,1.32,33.37,0.37c2.8-0.24,5.59-0.53,8.42-0.87c2.83-0.31,5.54-0.79,8.33-1.18c1.38-0.22,2.78-0.38,4.14-0.65
		l4.08-0.87l4.08-0.86c1.36-0.29,2.68-0.72,4.01-1.08c10.71-2.86,20.91-7.17,30.79-12.42c9.89-5.22,19.58-11.21,29.66-16.77
		c10.06-5.59,20.45-10.79,31.14-15.29c2.67-1.13,5.39-2.14,8.08-3.22l4.04-1.59l4.11-1.43l8.22-2.85l8.19-2.65
		c10.93-3.49,21.98-6.94,33.37-9.56c5.68-1.34,11.46-2.42,17.3-3.22c5.83-0.81,11.73-1.34,17.63-1.47
		c23.62-0.62,47.25,3.97,68.88,12.84c10.84,4.38,21.25,9.73,31.07,15.91c9.83,6.16,19.19,13.01,27.92,20.54
		c8.75,7.51,17,15.53,24.6,24.11c3.85,4.24,7.47,8.69,11.04,13.16c3.49,4.53,6.92,9.11,10.1,13.85
		c6.43,9.43,12.21,19.33,17.15,29.62c4.92,10.29,9,20.92,12.43,31.72c3.42,10.81,6.1,21.81,8.21,32.9
		c1.06,5.55,1.96,11.12,2.68,16.72c0.38,2.8,0.69,5.61,0.98,8.41l0.2,2.1l0.1,1.05c0.03,0.34,0.06,0.86,0.08,1.2
		c0.06,1.5,0.09,2.89,0.11,4.3l0.4,66.91c-0.08,22.32-0.03,44.55,0.06,66.86c0.01,11.16,0.12,22.28-0.2,33.57
		c-0.08,2.82-0.23,5.66-0.45,8.54c-0.16,1.46-0.23,2.87-0.48,4.38l-0.33,2.22l-0.51,2.3c-0.14,0.75-0.44,1.57-0.69,2.35
		c-0.22,0.78-0.58,1.59-0.96,2.38c-0.32,0.8-0.82,1.57-1.3,2.34c-0.45,0.79-1.07,1.43-1.61,2.14c-0.57,0.68-1.18,1.22-1.79,1.84
		c-0.62,0.55-1.28,1.08-1.93,1.61c-0.61,0.55-1.38,1-2.11,1.46l-1.11,0.69c-0.38,0.22-0.8,0.39-1.18,0.57
		c-3.17,1.56-6.69,2.27-9.83,2.48c-0.82,0.09-1.59,0.11-2.37,0.14s-1.56,0.06-2.31,0.05c-1.5-0.03-3.02-0.02-4.46-0.1
		c-5.86-0.25-11.51-0.64-17.18-0.84c-5.66-0.23-11.32-0.25-16.96-0.19l-8.49,0.25l-8.56,0.39c-5.7,0.26-11.35,0.66-17,1.13
		c-5.63,0.54-11.23,1.14-16.77,2.05c-11.07,1.77-22,4.27-32.31,8.24c-10.31,3.95-20,9.24-28.57,15.94
		c-2.19,1.63-4.25,3.35-6.23,5.21c-1.98,1.85-3.89,3.78-5.73,5.78c-3.68,4-7.04,8.28-10.09,12.75c-0.73,1.14-1.5,2.26-2.21,3.41
		l-1.05,1.73l-0.49,0.84l-0.47,0.86c-1.27,2.33-2.46,4.78-3.58,7.25c-2.23,4.95-4.18,10.04-5.81,15.21
		c-3.27,10.33-5.29,21.04-5.58,31.73c-0.29,10.69,1.22,21.36,4.91,31.33c0.49,1.23,0.94,2.49,1.47,3.7l1.67,3.61
		c1.23,2.36,2.5,4.71,3.95,6.98c2.86,4.53,6.14,8.87,9.79,12.94c3.61,4.1,7.55,7.97,11.68,11.7l3.13,2.79
		c0.52,0.48,1.11,0.88,1.54,1.45c0.44,0.56,0.7,1.31,0.99,2.03c0.29,0.73,0.65,1.39,1.17,1.86c0.53,0.46,1.09,0.88,1.69,1.26
		c1.17,0.78,2.5,1.38,3.8,1.98c1.32,0.6,2.6,1.22,3.78,1.98c1.17,0.77,2.29,1.62,3.45,2.41l7,4.83c4.68,3.27,9.5,6.51,13.91,10.71
		c2.19,2.09,4.26,4.5,5.88,7.3c0.79,1.42,1.47,2.91,1.97,4.49c0.46,1.58,0.83,3.2,0.93,4.82c0.28,3.24-0.18,6.53-1.18,9.54
		c-0.49,1.5-1.11,2.95-1.76,4.29c-0.6,1.31-1.42,2.64-2.19,4c-0.37,0.69-0.85,1.3-1.3,1.93c-0.46,0.63-0.91,1.26-1.39,1.87
		l-1.56,1.72l-0.79,0.86c-0.27,0.28-0.56,0.53-0.85,0.79l-1.71,1.57c-0.58,0.51-1.2,0.95-1.81,1.43c-1.19,0.98-2.5,1.79-3.77,2.63
		c-5.17,3.25-10.79,5.53-16.47,7.3c-2.84,0.89-5.71,1.61-8.56,2.28c-1.44,0.32-2.83,0.64-4.28,0.93c-1.45,0.3-2.9,0.57-4.37,0.8
		c-5.84,0.96-11.73,1.47-17.61,1.64c-5.88,0.23-11.75-0.06-17.59-0.42c-2.9-0.29-5.83-0.52-8.72-0.88c-2.88-0.42-5.8-0.74-8.66-1.24
		c-2.86-0.52-5.74-0.97-8.6-1.57l-8.52-1.87l-8.43-2.18c-2.81-0.73-5.56-1.64-8.35-2.45c-1.39-0.43-2.79-0.81-4.15-1.27l-4.11-1.4
		l-4.11-1.41c-1.37-0.46-2.74-0.93-4.08-1.46c-5.39-2.07-10.8-4.09-16.1-6.38c-10.65-4.52-20.91-9.88-30.98-15.16
		c-10.08-5.26-20.22-10.34-30.51-15.2c-10.27-4.86-20.68-9.51-31.1-14.09c-10.42-4.56-20.81-8.85-31.65-11.05
		c-2.71-0.56-5.43-1.01-8.19-1.34c-2.74-0.36-5.53-0.54-8.3-0.65c-2.78-0.19-5.56-0.08-8.34-0.07l-4.17,0.22
		c-1.39,0.06-2.78,0.25-4.16,0.38c-11.07,1.16-21.99,3.9-32.35,7.97c-10.36,4.09-20.27,9.37-29.27,15.8
		c-4.51,3.22-8.82,6.7-12.9,10.43c-4.1,3.73-7.91,7.67-11.68,11.84l-1.04,0.77c1.42-0.91,0.22-0.1,0.46-0.24l-0.27,0.22l-0.53,0.44
		l-1.04,0.86l-2.08,1.7l-4.16,3.41l-8.32,6.79l-16.65,13.55l-33.34,27.05l-33.35,27.03l-16.7,13.51l-8.63,6.63l-2.16,1.65
		l-2.24,1.55l-4.48,3.1c-5.87,4.26-12.15,7.94-18.26,11.84c-3.12,1.85-6.29,3.6-9.45,5.42l-4.73,2.69
		c-1.59,0.87-3.22,1.67-4.83,2.52l-9.68,4.99c-3.27,1.59-6.58,3.08-9.86,4.63c-6.53,3.19-13.32,5.82-20.01,8.67l-2.52,1.04
		l-2.56,0.95l-5.12,1.9c-3.42,1.24-6.8,2.59-10.25,3.75l-10.38,3.41l-5.2,1.7l-5.26,1.5l-10.52,2.98c-1.74,0.52-3.52,0.94-5.29,1.36
		l-5.33,1.27c-3.55,0.83-7.09,1.74-10.65,2.51l-10.75,2.1c-7.14,1.54-14.4,2.4-21.62,3.54c-3.6,0.61-7.25,0.92-10.89,1.31
		l-10.91,1.12c-3.65,0.3-7.3,0.43-10.95,0.66l-5.48,0.3c-1.83,0.08-3.65,0.25-5.49,0.22l-10.98,0.06l-5.5,0.03
		c-1.83,0.03-3.66-0.11-5.49-0.16c-29.3-0.84-58.45-5.42-86.65-13.08c-28.22-7.67-55.46-18.5-81.31-31.82
		c-25.81-13.38-50.28-29.16-72.99-47.06c-5.68-4.47-11.25-9.07-16.71-13.77l-8.13-7.17c-2.7-2.4-5.28-4.92-7.93-7.37
		c-10.45-9.96-20.37-20.43-29.73-31.37c-18.65-21.93-34.91-45.75-48.7-70.81c-13.74-25.1-24.95-51.45-33.89-78.47
		c-8.96-27.02-15.53-54.74-20.17-82.72c-4.64-27.98-7.32-56.25-8.26-84.54c-0.94-28.3-0.25-56.63,2.08-84.85
		c2.32-28.2,6.07-56.3,11.48-84.12c2.68-13.91,5.8-27.74,9.36-41.49C26.98,307.47,30.98,293.82,35.87,280.35z M45.06,283.5
		c-4.72,13.07-8.6,26.51-12.09,40.04c-3.44,13.55-6.47,27.2-9.06,40.95c-5.22,27.47-8.89,55.23-11.1,83.1
		c-4.4,55.7-3.08,111.93,5.85,167.07c8.88,55.08,25.83,109.1,52.58,158.37c13.44,24.57,29.27,47.9,47.44,69.4
		c9.12,10.72,18.8,20.98,28.99,30.75c2.58,2.4,5.1,4.89,7.73,7.24l7.93,7.03c5.37,4.65,10.82,9.17,16.37,13.57
		c22.21,17.6,46.17,33.15,71.42,46.32c25.28,13.11,51.92,23.77,79.47,31.35c27.54,7.55,55.98,12.11,84.6,12.99
		c1.79,0.05,3.57,0.19,5.36,0.17l5.37-0.02l10.74-0.03c1.79,0.03,3.57-0.13,5.37-0.2l5.37-0.28c3.57-0.21,7.15-0.32,10.73-0.61
		l10.69-1.08c3.56-0.37,7.13-0.65,10.67-1.24c7.08-1.09,14.2-1.9,21.21-3.39l10.55-2.02c3.51-0.73,6.97-1.62,10.47-2.42l5.23-1.23
		c1.74-0.41,3.49-0.8,5.21-1.32l10.34-2.89l5.16-1.45l5.11-1.65l10.21-3.3c3.4-1.13,6.72-2.44,10.08-3.66l5.03-1.85l2.52-0.93
		l2.47-1.01c6.58-2.78,13.26-5.34,19.69-8.44c3.24-1.5,6.5-2.97,9.7-4.51l9.52-4.87c1.58-0.81,3.18-1.61,4.75-2.44l4.65-2.62
		c3.09-1.77,6.21-3.48,9.27-5.27c5.99-3.8,12.16-7.37,17.9-11.52l4.38-3.02l2.18-1.5l2.11-1.61l8.42-6.43l16.73-13.44l33.43-26.94
		l67.43-54.42l-1.04,0.77c7.61-8.47,16.22-16.47,25.73-23.16c9.49-6.77,19.86-12.29,30.75-16.6c21.77-8.61,46.19-11.56,69.5-6.86
		c5.81,1.19,11.48,2.92,16.96,4.92c5.48,2.02,10.8,4.27,16.06,6.55c10.5,4.59,20.96,9.23,31.33,14.1
		c10.37,4.86,20.65,9.98,30.79,15.25c10.14,5.29,20.13,10.47,30.52,14.86c5.19,2.24,10.49,4.21,15.77,6.24
		c1.31,0.52,2.66,0.98,3.99,1.43l4.01,1.37l4.01,1.37c1.34,0.44,2.7,0.83,4.06,1.23c2.71,0.78,5.4,1.67,8.13,2.38l8.2,2.12
		l8.27,1.81c2.76,0.57,5.55,1,8.33,1.51c22.23,3.67,45.15,3.73,66.46-2.85c5.24-1.62,10.31-3.69,14.78-6.49
		c1.1-0.73,2.23-1.41,3.23-2.24c0.51-0.41,1.04-0.77,1.53-1.2l1.42-1.3c0.24-0.22,0.48-0.43,0.71-0.66l0.63-0.71l1.28-1.41
		l1.13-1.51c0.37-0.51,0.79-0.99,1.07-1.55c0.61-1.09,1.29-2.12,1.87-3.36c0.58-1.17,1.07-2.31,1.45-3.46
		c0.77-2.29,1.1-4.63,0.9-6.95c-0.16-2.32-0.86-4.51-2.01-6.58c-1.18-2.06-2.79-4-4.68-5.82c-3.77-3.65-8.39-6.84-13.01-10.08
		l-7.01-4.88c-1.16-0.84-2.36-1.64-3.49-2.52c-1.13-0.89-2.13-1.95-3.09-3.05c-0.96-1.11-1.89-2.22-2.95-3.2
		c-0.53-0.49-1.07-0.95-1.65-1.39c-0.58-0.43-1.33-0.65-2.13-0.84c-0.8-0.19-1.62-0.34-2.27-0.7c-0.65-0.34-1.13-0.87-1.7-1.31
		l-3.29-2.78c-4.38-3.75-8.64-7.71-12.6-11.98c-3.97-4.26-7.62-8.87-10.84-13.77c-3.25-4.89-5.96-10.17-8.05-15.67
		c-4.23-10.99-5.94-22.76-5.64-34.33c0.29-11.59,2.46-23.01,5.91-33.98c1.71-5.48,3.77-10.86,6.12-16.13
		c1.19-2.63,2.43-5.23,3.84-7.82l0.55-0.98l0.58-0.97l1.14-1.87c0.75-1.24,1.57-2.45,2.37-3.68c3.28-4.83,6.87-9.43,10.83-13.76
		c1.98-2.16,4.03-4.25,6.19-6.28c1.08-1,2.17-1.99,3.31-2.97c1.12-0.98,2.32-1.84,3.47-2.76c9.29-7.3,19.8-13.06,30.83-17.31
		c11.04-4.27,22.58-6.97,34.13-8.79c5.79-0.94,11.59-1.55,17.38-2.1c5.8-0.47,11.59-0.87,17.35-1.12l8.64-0.38l8.71-0.24
		c5.82-0.05,11.65-0.02,17.45,0.22c5.8,0.22,11.6,0.62,17.2,0.87c1.42,0.08,2.75,0.07,4.13,0.11c0.68,0.01,1.32-0.02,1.99-0.03
		c0.67-0.01,1.32-0.02,1.94-0.1c2.56-0.16,4.78-0.66,6.73-1.61c0.25-0.11,0.51-0.21,0.74-0.34l0.7-0.45
		c0.46-0.3,0.96-0.55,1.39-0.96l1.34-1.1c0.38-0.41,0.84-0.79,1.17-1.19c0.3-0.42,0.71-0.77,0.93-1.22
		c0.26-0.43,0.56-0.83,0.74-1.33c0.22-0.47,0.45-0.94,0.6-1.5c0.16-0.55,0.39-1.04,0.49-1.67c1.12-4.74,1.39-10.32,1.61-15.76
		c0.41-10.99,0.39-22.15,0.46-33.28l0.31-66.85c0.01-11.12-0.04-22.26-0.13-33.4c-0.09-11.13-0.12-22.31-0.26-33.39
		c-0.02-1.37-0.05-2.77-0.11-4.05c-0.01-0.36-0.03-0.53-0.06-0.89l-0.1-1.03l-0.2-2.06c-0.28-2.74-0.59-5.46-0.97-8.19
		c-0.71-5.45-1.59-10.89-2.64-16.29c-2.08-10.81-4.7-21.53-8.04-32.02c-3.33-10.49-7.32-20.78-12.07-30.71
		c-4.78-9.9-10.34-19.45-16.61-28.57c-3.1-4.59-6.44-9-9.83-13.39c-3.47-4.32-6.99-8.63-10.74-12.72
		c-7.4-8.29-15.43-16.04-23.89-23.27c-8.46-7.25-17.5-13.83-26.97-19.72c-9.46-5.91-19.44-11.01-29.8-15.16
		c-20.67-8.41-43.07-12.66-65.35-12.03c-5.57,0.14-11.12,0.65-16.65,1.43c-5.53,0.76-11.03,1.82-16.49,3.11
		c-10.94,2.55-21.76,5.94-32.62,9.44l-8.13,2.65l-7.99,2.78l-3.99,1.4l-3.93,1.55c-2.61,1.04-5.25,2.03-7.84,3.12
		c-10.36,4.38-20.4,9.41-30.25,14.88c-9.86,5.46-19.55,11.45-29.82,16.9c-10.24,5.46-21.21,10.12-32.64,13.17
		c-1.43,0.38-2.84,0.84-4.28,1.15l-4.32,0.92l-4.32,0.92c-1.44,0.28-2.9,0.45-4.36,0.69c-2.9,0.41-5.84,0.92-8.7,1.24
		c-2.87,0.34-5.78,0.65-8.69,0.9c-11.67,1.01-23.57,1.05-35.34-0.46c-5.87-0.77-11.74-1.83-17.47-3.43
		c-2.89-0.69-5.69-1.7-8.53-2.59c-1.41-0.48-2.78-1.04-4.17-1.57c-1.39-0.53-2.79-1.04-4.12-1.68c-2.71-1.24-5.41-2.37-8.09-3.86
		c-2.68-1.46-5.21-3.08-7.63-4.74c-4.85-3.32-9.37-6.85-13.87-10.39c-8.97-7.09-17.65-14.45-26.31-21.76
		c-8.66-7.32-17.33-14.65-25.88-22.16c-8.56-7.5-16.93-15.26-25.14-23.06l-6.19-5.7l-3.1-2.85c-1.02-0.96-2.07-1.9-3.14-2.8
		l-6.38-5.49c-2.12-1.84-4.24-3.68-6.45-5.41c-17.4-14.25-35.84-27.28-55.13-39.03c-2.39-1.5-4.87-2.86-7.3-4.3
		c-2.45-1.4-4.86-2.87-7.35-4.22c-4.98-2.68-9.89-5.48-14.96-8c-2.53-1.28-5.03-2.59-7.56-3.85l-7.66-3.68
		c-2.54-1.25-5.13-2.4-7.71-3.56c-2.59-1.15-5.15-2.35-7.77-3.46c-10.41-4.49-20.98-8.63-31.66-12.48
		c-10.69-3.81-21.54-7.22-32.47-10.31c-10.94-3.08-21.98-5.79-33.11-8.08c-5.56-1.15-11.14-2.19-16.75-3.09
		c-2.8-0.46-5.6-0.88-8.4-1.25c-1.4-0.2-2.8-0.37-4.2-0.53l-3.81-0.42l-0.32-0.01c-44.97-3.57-90.53,1.24-133.88,13.32
		c-21.7,6-42.88,13.75-63.3,23.05c-20.43,9.31-40.09,20.12-58.73,32.48c-18.68,12.24-36.22,26.09-52.54,41.17
		c-8.15,7.54-16,15.41-23.51,23.55c-3.72,4.09-7.4,8.24-10.97,12.46c-1.77,2.12-3.59,4.23-5.25,6.34c-1.7,2.14-3.37,4.33-5.01,6.55
		C81.82,203.24,60.28,242.35,45.06,283.5z"/>
</g>
</svg>
